<?xml version="1.0" encoding="UTF-8"?>
<svg version="1.1" xmlns="http://www.w3.org/2000/svg" width="684" height="688">
<path d="M0 0 C3.83088322 0.01118111 7.66174847 0.00444144 11.49264002 0.00021553 C18.94532872 -0.00534074 26.39791209 0.00474616 33.8505829 0.02050349 C42.5679073 0.03827295 51.2852129 0.03946751 60.00255257 0.04011908 C75.57272654 0.04179696 91.14285339 0.05748877 106.71300745 0.08160591 C121.75402706 0.10488584 136.79501684 0.11903665 151.83605433 0.12262154 C152.76394209 0.1228443 153.69182986 0.12306707 154.64783543 0.12329659 C156.51767104 0.12373926 158.38750664 0.12418128 160.25734225 0.12462266 C161.64155348 0.12495201 161.64155348 0.12495201 163.05372858 0.12528801 C163.97450405 0.125504 164.89527952 0.12571998 165.84395728 0.12594251 C180.28027678 0.12965881 194.71659161 0.1410141 209.15290591 0.15341841 C214.34788562 0.1578221 219.5428649 0.16127314 224.73784572 0.16404054 C232.97704971 0.16850662 241.2162363 0.17639839 249.45542938 0.19081494 C253.20942194 0.19733746 256.96339963 0.20247386 260.71739817 0.20327568 C307.51435318 0.21708981 307.51435318 0.21708981 326.06554651 3.23785591 C327.15287073 3.39898872 328.24019495 3.56012154 329.36046839 3.72613716 C343.8529017 5.96911724 343.8529017 5.96911724 349.75304651 8.36285591 C350.41304651 9.35285591 351.07304651 10.34285591 351.75304651 11.36285591 C351.75304651 10.70285591 351.75304651 10.04285591 351.75304651 9.36285591 C355.13493167 9.92650344 357.70774028 10.8402028 360.75304651 12.36285591 C361.87839808 12.58135201 361.87839808 12.58135201 363.02648401 12.80426216 C379.81539493 16.24382414 396.71173869 26.57939224 409.75304651 37.36285591 C410.81774725 38.21362145 411.88286636 39.06386362 412.94835901 39.91363716 C446.81381747 67.32614265 468.34960548 108.27195932 473.09857655 151.50871587 C473.39012999 154.83063521 473.63805641 158.15204254 473.8618722 161.47921944 C473.94612695 162.72984535 474.03038171 163.98047126 474.11718965 165.26899493 C475.0174681 179.88631689 475.03898513 194.49675159 475.01449585 209.13621736 C475.00987804 213.24116834 475.017 217.34610402 475.02245569 221.45105171 C475.03125272 229.4472205 475.02947203 237.44335132 475.02363041 245.43952148 C475.01907706 251.94654819 475.01851669 258.45356441 475.02067804 264.96059227 C475.02098451 265.89364526 475.02129098 266.82669824 475.02160673 267.78802557 C475.0222463 269.68458926 475.02289473 271.58115295 475.02355191 273.47771664 C475.02922629 291.1731878 475.02274208 308.86863809 475.01195118 326.56410582 C475.00300944 341.69511236 475.00457849 356.8260882 475.0137887 371.95709419 C475.02452746 389.60708641 475.02868649 407.25706046 475.02256417 424.9070555 C475.02192719 426.79404171 475.02129845 428.68102793 475.02067804 430.56801414 C475.02036949 431.49602061 475.02006094 432.42402708 475.01974304 433.38015496 C475.01802755 439.87038895 475.02090607 446.36061125 475.02563715 452.85084343 C475.03128591 460.77255561 475.02964617 468.69422823 475.01907566 476.61593597 C475.01387347 480.64523915 475.0116673 484.67447674 475.01837397 488.70377922 C475.08493062 532.33662328 475.08493062 532.33662328 470.50304651 552.67535591 C470.28833704 553.66261665 470.07362757 554.6498774 469.85241175 555.66705513 C467.79142299 564.80156997 465.06910989 573.61140781 461.75304651 582.36285591 C461.31476526 583.54621529 460.87648401 584.72957466 460.42492151 585.94879341 C444.50168965 625.93989872 410.88746057 656.55568273 372.05187464 673.54449654 C339.70426813 686.95806467 304.92904386 688.84198968 270.34033644 688.75502992 C266.25232674 688.74811482 262.16435197 688.75878088 258.07634974 688.76696968 C250.10829567 688.78017885 242.14032727 688.7774874 234.17227011 688.76873176 C227.68619377 688.76190489 221.20014113 688.76105986 214.71406221 688.76430321 C213.78437978 688.76476291 212.85469734 688.76522261 211.89684271 688.76569624 C210.00713013 688.76665559 208.11741757 688.76762823 206.22770501 688.76861401 C188.58603052 688.77713022 170.94440311 688.76739311 153.30273635 688.75121291 C138.22438197 688.73781096 123.14609691 688.74014418 108.06774378 688.75396919 C90.47962433 688.77008823 72.89154593 688.77630892 55.30342013 688.7671324 C53.42168511 688.76617694 51.53995008 688.76523382 49.65821505 688.76430321 C48.27009975 688.76360897 48.27009975 688.76360897 46.85394172 688.7629007 C40.38867889 688.76032987 33.9234425 688.76464016 27.45818377 688.77174187 C19.56064503 688.78022772 11.66319552 688.77772998 3.76566678 688.76189964 C-0.24984507 688.7541112 -4.26520913 688.75076012 -8.28071928 688.76084709 C-48.27221932 688.85271945 -87.63289711 684.83621177 -123.24695349 665.36285591 C-124.31429724 664.78664497 -125.38164099 664.21043404 -126.48132849 663.61676216 C-137.82710738 657.25313229 -147.82040401 649.28928299 -157.24695349 640.36285591 C-158.06937536 639.5932856 -158.89179724 638.82371529 -159.73914099 638.03082466 C-166.32745049 631.67854493 -171.94059854 624.78829311 -177.24695349 617.36285591 C-178.3568363 615.81211372 -178.3568363 615.81211372 -179.48914099 614.23004341 C-202.59520864 580.10542393 -209.44557121 540.35528664 -209.37393713 499.81714058 C-209.37509298 498.41942818 -209.37668359 497.02171608 -209.37866437 495.6240046 C-209.38279426 491.82943456 -209.38079604 488.03489004 -209.37767816 484.24031997 C-209.37539805 480.12975066 -209.37891662 476.01918548 -209.38165808 471.90861702 C-209.38608747 463.87311179 -209.3851518 455.83761593 -209.38224544 447.80211034 C-209.37997962 441.26468241 -209.37968398 434.72725709 -209.38076925 428.18982887 C-209.38092249 427.2564995 -209.38107572 426.32317012 -209.3812336 425.36155804 C-209.38155335 423.46498694 -209.38187756 421.56841584 -209.38220619 419.67184475 C-209.38505285 401.91695111 -209.38178705 384.16206264 -209.37640582 366.40716985 C-209.37194147 351.20766287 -209.37271226 336.00816353 -209.37732458 320.80865669 C-209.38268981 303.11998788 -209.38477515 285.4313236 -209.38171232 267.74265409 C-209.3813938 265.85215139 -209.38107943 263.9616487 -209.38076925 262.07114601 C-209.38061498 261.14121098 -209.3804607 260.21127594 -209.38030175 259.25316106 C-209.37944222 252.73366156 -209.38088735 246.21416496 -209.38324881 239.69466591 C-209.38606881 231.73481525 -209.38526259 223.77497444 -209.37996806 215.8151249 C-209.3773601 211.76212804 -209.376276 207.70914752 -209.37961721 203.65615082 C-209.4120562 160.64444472 -209.4120562 160.64444472 -206.55945349 144.48785591 C-206.38502722 143.48593208 -206.21060095 142.48400826 -206.03088903 141.4517231 C-197.96350408 97.25012016 -174.03171145 57.93201577 -137.29480505 31.72857857 C-96.74114071 3.74192428 -47.79905026 -0.18272094 0 0 Z " fill="#F9F2ED" transform="translate(209.24695348739624,-0.3628559112548828)"/>
<path d="M0 0 C2.0069054 3.0103581 2.38898589 4.34293079 2.89453125 7.8125 C3.11713623 9.28227295 3.11713623 9.28227295 3.34423828 10.78173828 C3.49876465 11.84376465 3.65329102 12.90579102 3.8125 14 C5.24248267 23.41256159 6.84655757 32.7720753 8.625 42.125 C10.17200624 50.29798322 11.60368036 58.42360405 12.54296875 66.69140625 C12.91253703 69.36682788 13.38017364 71.95204226 13.92578125 74.59375 C15.17234371 80.67567165 16.08467389 86.79837917 17 92.9375 C17.95086273 99.29268021 18.91210009 105.63026946 20.125 111.94140625 C20.82584334 115.68414238 21.20665948 119.17679971 21 123 C22.21623047 122.60167969 22.21623047 122.60167969 23.45703125 122.1953125 C24.56433594 121.84210938 25.67164063 121.48890625 26.8125 121.125 C27.89144531 120.77695313 28.97039062 120.42890625 30.08203125 120.0703125 C39.514837 117.35274527 48.65173027 116.68369326 58.4375 116.75 C59.57509766 116.74226563 60.71269531 116.73453125 61.88476562 116.7265625 C96.74847094 116.80611459 134.74269228 134.22623458 160 158 C169.27191514 167.88090792 173.27239777 177.22049155 173.2421875 190.6640625 C172.96182566 194.52582077 172.03840169 197.58543898 170.4609375 201.09765625 C169.81927973 203.74585398 170.62672865 204.67900056 172 207 C173.16205342 208.33203918 174.37892128 209.6173064 175.6328125 210.86328125 C176.35726563 211.58580078 177.08171875 212.30832031 177.828125 213.05273438 C178.58609375 213.79845703 179.3440625 214.54417969 180.125 215.3125 C180.85976563 216.04662109 181.59453125 216.78074219 182.3515625 217.53710938 C185.70475866 220.86373972 189.07943735 224.10957831 192.6796875 227.16796875 C193.31519531 227.739104 193.95070313 228.31023926 194.60546875 228.89868164 C195.94327451 230.07267166 197.29568998 231.23208534 198.69580078 232.33102417 C210.79660823 241.88573146 210.79660823 241.88573146 212.18847656 249.77246094 C212.69400278 255.15786266 212.43411007 260.48534349 212.125 265.875 C212.06383392 267.79235351 212.00681192 269.70984354 211.95385742 271.62744141 C210.75640936 307.10290089 210.75640936 307.10290089 204.76171875 314.91796875 C201.7452197 317.19207623 199.0094316 318.53605663 195.5 319.9375 C189.84954131 322.26630751 184.30956991 324.77830111 178.81640625 327.45703125 C177.86470047 327.92090492 177.86470047 327.92090492 176.89376831 328.39414978 C174.31387795 329.65427597 171.73550512 330.91731151 169.16162109 332.18966675 C167.33007599 333.09470105 165.49531239 333.99294084 163.66015625 334.890625 C162.59418213 335.41688477 161.52820801 335.94314453 160.42993164 336.48535156 C156.36577957 338.28007001 152.23345031 339.66515546 148 341 C153.68183638 373.53246104 153.68183638 373.53246104 159.98046875 405.94921875 C161.21249893 411.97740705 162.27545214 418.03087886 163.3203125 424.09375 C164.0156139 428.08973504 164.748537 432.07679444 165.5 436.0625 C165.62318604 436.71645752 165.74637207 437.37041504 165.87329102 438.04418945 C166.37762235 440.71645197 166.88387428 443.38834655 167.39111328 446.06005859 C168.868003 453.84346871 170.30904689 461.62715919 171.5703125 469.44921875 C171.84951133 471.10664453 172.17538329 472.75711239 172.5546875 474.39453125 C173.13801573 477.80751306 173.43104505 480.54009372 173 484 C170.9939656 486.14081484 169.36432549 487.55017551 167 489.1875 C166.37424072 489.64890381 165.74848145 490.11030762 165.10375977 490.58569336 C163.7674004 491.56917059 162.42412877 492.54331261 161.07470703 493.50878906 C158.3348019 495.47811603 155.64467649 497.51016172 152.9519043 499.54321289 C150.93662873 501.06315713 148.91429607 502.57328921 146.890625 504.08203125 C143.29534908 506.76961535 139.73663626 509.50192104 136.1875 512.25 C131.53410186 515.84856213 126.82208487 519.35029652 122.03515625 522.76953125 C119.6271328 524.53913407 117.27685232 526.34659856 114.93359375 528.19921875 C114.22178955 528.75432129 113.50998535 529.30942383 112.77661133 529.88134766 C111.36448571 530.98470599 109.96156102 532.09996357 108.5690918 533.22802734 C107.91980713 533.73156738 107.27052246 534.23510742 106.6015625 534.75390625 C106.02744629 535.21095947 105.45333008 535.6680127 104.86181641 536.13891602 C102.1849714 537.37694806 100.78847033 536.8779044 98 536 C96.04597514 535.05729145 94.12721565 534.03982044 92.23828125 532.97265625 C91.12855957 532.35044189 90.01883789 531.72822754 88.87548828 531.0871582 C87.68775801 530.41239095 86.50009673 529.73750225 85.3125 529.0625 C84.08615308 528.37196764 82.85942461 527.68211246 81.63232422 526.99291992 C79.1963709 525.62393494 76.762254 524.25177381 74.32958984 522.87695312 C70.81085527 520.89337552 67.28002433 518.93312769 63.7434082 516.98168945 C55.04509199 512.18092463 46.41528097 507.26276475 37.796875 502.3203125 C33.66661883 499.95178376 29.53029716 497.5942196 25.390625 495.2421875 C10.0951504 486.54383349 -5.09656595 477.68779526 -20.20507812 468.66845703 C-22.50481217 467.29560741 -24.8064285 465.9260422 -27.109375 464.55859375 C-30.04469562 462.81232536 -32.96962792 461.04955563 -35.88964844 459.27783203 C-37.44572574 458.33561678 -39.00399944 457.39702662 -40.56347656 456.46044922 C-46.46085738 452.91373732 -52.31105497 449.30012945 -58.12882996 445.6247406 C-62.41758937 442.93552622 -66.77585837 440.39330613 -71.17311096 437.88597107 C-74.53211929 435.94792696 -77.84519695 433.93867212 -81.15396118 431.91629028 C-82.78457572 430.94045093 -84.43304299 429.99376868 -86.09872437 429.07907104 C-98.78433065 422.07890758 -98.78433065 422.07890758 -100.71853638 415.58911133 C-101.50767648 409.71010892 -100.99941339 403.95232189 -100.34008789 398.08169556 C-100.00791229 395.07169699 -99.78928228 392.07605263 -99.609375 389.0534668 C-99.2399991 383.06682443 -98.72549826 377.09852889 -98.1875 371.125 C-98.0016444 368.9956253 -97.81601843 366.86623054 -97.63061523 364.73681641 C-94.81745358 332.80037457 -90.14032954 301.37607546 -83.61181641 269.97509766 C-83.00875967 267.0425959 -82.42932128 264.10631079 -81.85546875 261.16796875 C-76.27116111 232.91571861 -69.16592465 204.21197716 -57 178 C-56.19420248 176.25646151 -55.39914067 174.50782318 -54.625 172.75 C-54.26664063 171.96109375 -53.90828125 171.1721875 -53.5390625 170.359375 C-52.60620862 166.27644934 -54.55167918 163.72720583 -56.6640625 160.30078125 C-57.31117188 159.31464844 -57.95828125 158.32851562 -58.625 157.3125 C-73.85009946 133.13331648 -80.34954382 106.06162963 -73.97338867 77.8581543 C-66.46792332 48.58404698 -46.14361523 21.69040167 -20.47265625 6.0234375 C-6.07438421 -2.49205506 -6.07438421 -2.49205506 0 0 Z " fill="#FA6F20" transform="translate(298,74)"/>
<path d="M0 0 C5.92254228 2.67424486 10.88426815 7.05179859 16 11 C17.32064453 12.00546875 17.32064453 12.00546875 18.66796875 13.03125 C25.32804934 18.27064774 31.25233032 24.09421754 37.16699219 30.15258789 C40.22106236 33.27243212 43.28387918 36.29122146 46.61328125 39.1171875 C47.25837646 39.6956543 47.90347168 40.27412109 48.56811523 40.87011719 C49.92032286 42.05440183 51.28646386 43.22482794 52.70046997 44.33459473 C64.79660146 53.88569307 64.79660146 53.88569307 66.18847656 61.77246094 C66.69400278 67.15786266 66.43411007 72.48534349 66.125 77.875 C66.06383392 79.79235351 66.00681192 81.70984354 65.95385742 83.62744141 C64.75640936 119.10290089 64.75640936 119.10290089 58.76171875 126.91796875 C55.7452197 129.19207623 53.0094316 130.53605663 49.5 131.9375 C43.84954131 134.26630751 38.30956991 136.77830111 32.81640625 139.45703125 C32.18193573 139.76628036 31.54746521 140.07552948 30.89376831 140.39414978 C28.31387795 141.65427597 25.73550512 142.91731151 23.16162109 144.18966675 C21.33007599 145.09470105 19.49531239 145.99294084 17.66015625 146.890625 C16.59418213 147.41688477 15.52820801 147.94314453 14.42993164 148.48535156 C10.36577957 150.28007001 6.23345031 151.66515546 2 153 C7.68183638 185.53246104 7.68183638 185.53246104 13.98046875 217.94921875 C15.21249893 223.97740705 16.27545214 230.03087886 17.3203125 236.09375 C18.0156139 240.08973504 18.748537 244.07679444 19.5 248.0625 C19.62318604 248.71645752 19.74637207 249.37041504 19.87329102 250.04418945 C20.37762235 252.71645197 20.88387428 255.38834655 21.39111328 258.06005859 C22.868003 265.84346871 24.30904689 273.62715919 25.5703125 281.44921875 C25.84951133 283.10664453 26.17538329 284.75711239 26.5546875 286.39453125 C27.13801573 289.80751306 27.43104505 292.54009372 27 296 C24.9939656 298.14081484 23.36432549 299.55017551 21 301.1875 C20.37424072 301.64890381 19.74848145 302.11030762 19.10375977 302.58569336 C17.7674004 303.56917059 16.42412877 304.54331261 15.07470703 305.50878906 C12.3348019 307.47811603 9.64467649 309.51016172 6.9519043 311.54321289 C4.93662873 313.06315713 2.91429607 314.57328921 0.890625 316.08203125 C-2.70465092 318.76961535 -6.26336374 321.50192104 -9.8125 324.25 C-14.46389706 327.84701466 -19.17891946 331.34109446 -23.953125 334.7734375 C-26.37985681 336.54681843 -28.78033865 338.34404091 -31.171875 340.1640625 C-32.25988403 340.98994873 -32.25988403 340.98994873 -33.36987305 341.83251953 C-34.81445114 342.93111305 -36.2561037 344.03356575 -37.69458008 345.14013672 C-38.35353271 345.6404541 -39.01248535 346.14077148 -39.69140625 346.65625 C-40.28123291 347.10806641 -40.87105957 347.55988281 -41.47875977 348.02539062 C-43 349 -43 349 -45 349 C-45.04345047 348.14921875 -45.08690094 347.2984375 -45.13166809 346.421875 C-46.12479749 327.01573133 -47.14680561 307.6113985 -48.22053528 288.20953369 C-48.31242259 286.54789416 -48.404276 284.88625275 -48.49609375 283.22460938 C-48.54032817 282.42412548 -48.58456259 281.62364159 -48.63013744 280.7989006 C-48.94919816 274.99567383 -49.24429932 269.1914563 -49.53218079 263.38659668 C-49.72355841 259.65658498 -49.94077501 255.92855944 -50.16976929 252.20068359 C-50.26401425 250.58249944 -50.34694538 248.96361185 -50.4178772 247.34423828 C-50.61874975 237.73082866 -50.61874975 237.73082866 -55.40234375 229.74609375 C-56.59257492 228.81907288 -57.7916786 227.90331463 -59 227 C-60.11030668 225.79514279 -61.1967683 224.56755569 -62.25 223.3125 C-69.45086031 214.97297358 -77.02939172 206.95632976 -84.50952148 198.86767578 C-86.98966346 196.18450711 -89.46312903 193.49576925 -91.921875 190.79296875 C-96.5654848 185.69167256 -101.26465985 180.68709223 -106.18359375 175.84765625 C-107.9787623 174.02160308 -109.64925133 172.13385483 -111.3125 170.1875 C-114.66096114 166.28734732 -118.2778609 162.68853897 -121.93701172 159.0847168 C-125.30152518 155.75222968 -128.44493215 152.30176988 -131.46484375 148.65625 C-132.94046138 146.91572887 -132.94046138 146.91572887 -134.96166992 145.79248047 C-137.73269137 143.35568092 -138.1691878 141.20435042 -139.1484375 137.6640625 C-139.32631805 137.03696884 -139.50419861 136.40987518 -139.68746948 135.76377869 C-140.26356687 133.72104739 -140.81921674 131.67334175 -141.375 129.625 C-141.77038993 128.21045844 -142.16720928 126.79631569 -142.56542969 125.38256836 C-143.35743031 122.56321831 -144.14189443 119.74196376 -144.91894531 116.91845703 C-146.3306944 111.79067303 -147.78817761 106.67619748 -149.25 101.5625 C-149.59985962 100.32463745 -149.59985962 100.32463745 -149.95678711 99.06176758 C-151.08253972 95.09865483 -152.25282666 91.15739647 -153.51171875 87.234375 C-153.75180664 86.48599365 -153.99189453 85.7376123 -154.23925781 84.96655273 C-154.69096276 83.57305876 -155.14950267 82.18175393 -155.61621094 80.79321289 C-157.10828817 76.21657633 -157.10828817 76.21657633 -156 74 C-155.58339111 74.70793701 -155.16678223 75.41587402 -154.73754883 76.14526367 C-147.50957583 88.41587024 -140.26956692 100.67924672 -132.8125 112.8125 C-132.29727783 113.65772217 -131.78205566 114.50294434 -131.2512207 115.3737793 C-130.76226318 116.16437744 -130.27330566 116.95497559 -129.76953125 117.76953125 C-129.35292236 118.44604736 -128.93631348 119.12256348 -128.50708008 119.81958008 C-124.597428 125.47600365 -121.86825513 128.60978314 -115.16015625 130.6171875 C-114.50709 130.81714325 -113.85402374 131.017099 -113.1811676 131.22311401 C-111.12739562 131.84182292 -109.06667765 132.42599428 -107 133 C-106.35085632 133.18244263 -105.70171265 133.36488525 -105.03289795 133.55285645 C-101.1653933 134.62985831 -97.28476337 135.64656 -93.39282227 136.63037109 C-91.43274244 137.1262035 -89.47508061 137.63081717 -87.51757812 138.13671875 C-64.1913004 144.1309369 -64.1913004 144.1309369 -40.8125 140.9375 C-39.67989746 140.62385498 -38.54729492 140.31020996 -37.38037109 139.98706055 C-23.12784814 135.99217099 -9.03658174 131.46061132 4.953125 126.62890625 C7 126 7 126 9 126 C10.88280891 117.99979476 11.59019492 110.06365491 12.125 101.875 C12.25455078 100.01101563 12.25455078 100.01101563 12.38671875 98.109375 C12.59691118 95.07326211 12.80120633 92.03687689 13 89 C12.26281738 88.72309326 11.52563477 88.44618652 10.76611328 88.16088867 C8.22099311 87.09274689 6.06156917 85.90964078 3.7421875 84.42578125 C2.95626221 83.92594727 2.17033691 83.42611328 1.3605957 82.91113281 C0.54034912 82.38358398 -0.27989746 81.85603516 -1.125 81.3125 C-2.38727417 80.5076416 -2.38727417 80.5076416 -3.67504883 79.68652344 C-5.34942561 78.61845035 -7.0227114 77.54866473 -8.69482422 76.47705078 C-11.68713537 74.55971521 -14.68729437 72.65495456 -17.6875 70.75 C-19.1252293 69.83369301 -20.5628396 68.917199 -22 68 C-18.87589677 66.26459201 -15.96097764 65.42999832 -12.46875 64.703125 C-11.36080078 64.46932129 -10.25285156 64.23551758 -9.11132812 63.99462891 C-7.91958984 63.74890137 -6.72785156 63.50317383 -5.5 63.25 C-2.97910051 62.72166975 -0.45826922 62.19301395 2.0625 61.6640625 C2.71037476 61.52894257 3.35824951 61.39382263 4.02575684 61.25460815 C8.66848099 60.2853605 13.30424634 59.28691672 17.9375 58.2734375 C19.20529297 57.99725586 20.47308594 57.72107422 21.77929688 57.43652344 C24.22387993 56.90333485 26.66791034 56.36760494 29.11132812 55.82910156 C30.21927734 55.58901367 31.32722656 55.34892578 32.46875 55.1015625 C33.44263672 54.88838379 34.41652344 54.67520508 35.41992188 54.45556641 C38 54 38 54 42 54 C42.33 52.02 42.66 50.04 43 48 C42.43796875 47.76667969 41.8759375 47.53335938 41.296875 47.29296875 C38.43265858 45.68062924 36.52747979 43.6806438 34.25 41.3125 C30.69864803 37.62940433 27.009692 34.23347985 23.14550781 30.8894043 C18.64542903 26.92648785 14.34397838 22.74565244 10.00390625 18.609375 C9.28589844 17.92875 8.56789063 17.248125 7.828125 16.546875 C7.1877832 15.93682617 6.54744141 15.32677734 5.88769531 14.69824219 C4.00935679 12.94197924 4.00935679 12.94197924 1.78515625 11.43334961 C0 10 0 10 -0.390625 7.51953125 C-0.34421875 6.62621094 -0.2978125 5.73289062 -0.25 4.8125 C-0.21390625 3.91144531 -0.1778125 3.01039063 -0.140625 2.08203125 C-0.09421875 1.39496094 -0.0478125 0.70789063 0 0 Z " fill="#A33815" transform="translate(444,262)"/>
<path d="M0 0 C8.04084137 1.03752792 13.51570747 7.64363451 18.63671875 13.54296875 C33.49699239 33.17512782 35.44002347 56.55090333 33.56640625 80.43359375 C33.13329526 83.50369908 32.57039036 86.47878425 31.875 89.5 C31.45541016 91.34271484 31.45541016 91.34271484 31.02734375 93.22265625 C29.1280851 101.10260125 26.49777971 108.26392429 22.875 115.5 C22.20933741 116.89897935 21.54540462 118.29878254 20.8828125 119.69921875 C20.17297572 121.1750091 19.46203922 122.65027102 18.75 124.125 C18.41323242 124.83712646 18.07646484 125.54925293 17.72949219 126.28295898 C16.85416682 128.06153182 15.87148979 129.78637112 14.875 131.5 C11.07513573 132.76662142 10.30422444 132.03983901 6.7734375 130.32421875 C5.73743408 129.83042725 4.70143066 129.33663574 3.6340332 128.82788086 C2.51730225 128.28655518 1.40057129 127.74522949 0.25 127.1875 C-11.8581222 121.44563527 -24.1365283 116.36087219 -36.62255859 111.49169922 C-39.81971555 110.22468931 -42.97474483 108.87906275 -46.125 107.5 C-45.4935917 102.11417342 -43.72784094 97.53039175 -41.703125 92.55078125 C-41.3612616 91.69751755 -41.01939819 90.84425385 -40.66717529 89.96513367 C-39.94372232 88.16286699 -39.21736158 86.36176515 -38.48828125 84.56176758 C-37.38666107 81.84129721 -36.29411016 79.11732835 -35.203125 76.39257812 C-31.99489 68.4076153 -28.7302613 60.48318157 -25.10058594 52.6784668 C-23.72308863 49.60253876 -22.66902901 46.45262953 -21.625 43.25 C-18.61160224 34.35833944 -14.99386835 25.71999224 -11.375 17.0625 C-11.08278564 16.35871216 -10.79057129 15.65492432 -10.48950195 14.92980957 C-9.64970559 12.91041145 -8.80273801 10.89419097 -7.953125 8.87890625 C-7.4571582 7.6988501 -6.96119141 6.51879395 -6.45019531 5.30297852 C-4.70804697 1.61808444 -4.08352065 0.6533633 0 0 Z " fill="#FA6D20" transform="translate(433.125,77.5)"/>
<path d="M0 0 C0.33 0 0.66 0 1 0 C2.25237075 6.68705821 3.50204107 13.37461707 4.75 20.0625 C5.02594498 21.54052094 5.02594498 21.54052094 5.3074646 23.04840088 C7.37778302 34.14617949 9.42770979 45.24399546 11.3125 56.375 C12.4416357 63.03968412 13.755737 69.60763195 15.3515625 76.1796875 C16.23405637 80.0180042 16.85233011 83.88094909 17.46875 87.76953125 C18.08629355 91.52474093 18.78801453 95.26185571 19.5 99 C20.60289347 104.80433924 21.62977773 110.61625313 22.5703125 116.44921875 C22.84951133 118.10664453 23.17538329 119.75711239 23.5546875 121.39453125 C24.14465009 124.84632992 24.47772968 127.49793324 24 131 C22.07501363 133.39422056 19.75107638 135.05331037 17.25 136.8125 C16.61578125 137.28880859 15.9815625 137.76511719 15.328125 138.25585938 C12.34305096 140.46667983 9.41990728 142.5059496 6 144 C4.44210789 142.44210789 4.83651013 140.91128404 4.7890625 138.7421875 C4.76271729 137.82308594 4.73637207 136.90398437 4.70922852 135.95703125 C4.68143311 134.93996094 4.6536377 133.92289063 4.625 132.875 C4.2967788 123.20234312 3.55716619 113.62590038 2.5625 104 C1.27450495 91.51255889 0.34890128 79.03906015 -0.35327148 66.50585938 C-0.42489502 65.24708984 -0.49651855 63.98832031 -0.5703125 62.69140625 C-0.62977051 61.58998291 -0.68922852 60.48855957 -0.75048828 59.35375977 C-0.92823296 56.96464169 -1.1931549 54.58133891 -1.51635742 52.20751953 C-2.13147074 47.46727244 -2.16195552 42.76286412 -2.16796875 37.98828125 C-2.17296135 36.59140327 -2.17296135 36.59140327 -2.17805481 35.16630554 C-2.18308885 33.21072886 -2.18546423 31.2551437 -2.18530273 29.29956055 C-2.18750118 26.31089279 -2.20572676 23.32258758 -2.22460938 20.33398438 C-2.22754167 18.42708459 -2.22952756 16.52018306 -2.23046875 14.61328125 C-2.23765427 13.7236116 -2.24483978 12.83394196 -2.25224304 11.91731262 C-2.23594779 7.49639202 -2.08572356 4.01903482 0 0 Z " fill="#EC6323" transform="translate(447,427)"/>
<path d="M0 0 C0.75924521 39.3639442 0.75924521 39.3639442 -1.6875 54.1875 C-1.83606445 55.13367188 -1.98462891 56.07984375 -2.13769531 57.0546875 C-3.1698877 62.4600629 -4.48218904 65.51541038 -9 69 C-12.94033533 71.44598174 -16.38508841 72.34986196 -20.95703125 71.359375 C-28.17638889 68.82361111 -28.17638889 68.82361111 -31 66 C-31.61960621 60.60870125 -31.71322286 55.2140615 -31.81005859 49.79077148 C-31.852988 47.98725234 -31.92093062 46.18413697 -32.01513672 44.38256836 C-32.83066563 28.63067102 -32.83066563 28.63067102 -28.43139648 23.45947266 C-25.54355867 20.62178211 -22.29908677 18.34005299 -19 16 C-17.40369246 14.4507573 -15.83391942 12.87284738 -14.3125 11.25 C-3.22466216 0 -3.22466216 0 0 0 Z " fill="#FB7421" transform="translate(509,322)"/>
<path d="M0 0 C3.77983322 3.0482526 6.54927293 5.86594528 7.57421875 10.71875 C7.82180032 16.93390106 6.80593624 21.09234537 3 26 C-4.27737267 31.64367676 -11.04113806 31.71873356 -20 31 C-25.45502729 29.37923637 -28.72494124 25.43096185 -32 21 C-34.00644626 16.98710748 -33.61582775 12.35184946 -33 8 C-30.42205477 2.52298141 -26.71994793 -0.93108266 -21 -3 C-13.25089064 -5.24316324 -6.57683005 -4.61554873 0 0 Z " fill="#623621" transform="translate(350,267)"/>
<path d="M0 0 C2.6178772 2.6178772 2.6768983 4.49852927 3.3671875 8.125 C3.73312012 10.00856201 3.73312012 10.00856201 4.10644531 11.93017578 C4.36265032 13.28678006 4.61883482 14.6433882 4.875 16 C5.4053333 18.74808333 5.94096891 21.49512522 6.4765625 24.2421875 C6.60760376 24.91804901 6.73864502 25.59391052 6.87365723 26.29025269 C7.90591616 31.59122782 9.04164918 36.86180429 10.25 42.125 C11.74373851 48.7010743 13.22778916 55.29395847 14 62 C14.17402344 62.96035156 14.34804688 63.92070312 14.52734375 64.91015625 C13.68379647 69.85271848 10.17808778 71.78410378 6.3125 74.6875 C5.59126953 75.25533203 4.87003906 75.82316406 4.12695312 76.40820312 C0.5383697 79.20369323 -3.06987912 81.70007569 -7 84 C-7.09416753 76.08469578 -6.87565786 68.2654863 -6.25 60.375 C-6.16564697 59.28687012 -6.08129395 58.19874023 -5.99438477 57.07763672 C-5.08159184 45.96126138 -3.77324209 34.89415731 -2.40917969 23.82568359 C-1.43421477 15.89344141 -0.5834478 7.97158009 0 0 Z " fill="#FAEFE6" transform="translate(283,146)"/>
<path d="M0 0 C12.76811406 9.03110507 18.8555455 26.25726294 21.56640625 41.1015625 C23.04801615 54.42270372 23.01045964 68.92065839 20 82 C19.72027344 83.22847656 19.44054687 84.45695312 19.15234375 85.72265625 C17.2530851 93.60260125 14.62277971 100.76392429 11 108 C10.33433741 109.39897935 9.67040462 110.79878254 9.0078125 112.19921875 C8.29797572 113.6750091 7.58703922 115.15027102 6.875 116.625 C6.53823242 117.33712646 6.20146484 118.04925293 5.85449219 118.78295898 C4.97916682 120.56153182 3.99648979 122.28637112 3 124 C1.515 124.495 1.515 124.495 0 125 C1.31759152 119.12862724 2.93147864 113.86327684 5.8125 108.5625 C8.61969238 103.19313203 10.51012785 97.78138827 12.25 92 C12.49596924 91.19377197 12.74193848 90.38754395 12.99536133 89.55688477 C19.78675802 66.2215614 20.13438475 39.42541885 10 17 C8.4714503 14.5060813 6.80931509 12.31239294 5 10 C2.97207717 6.77918139 1.20903691 3.62711073 0 0 Z " fill="#DA541D" transform="translate(445,85)"/>
<path d="M0 0 C0.75924521 39.3639442 0.75924521 39.3639442 -1.6875 54.1875 C-1.83606445 55.13367188 -1.98462891 56.07984375 -2.13769531 57.0546875 C-3.16755171 62.44782981 -4.46089594 65.55376738 -9 69 C-11.3515625 70.21484375 -11.3515625 70.21484375 -13.625 70.9375 C-14.38039063 71.19402344 -15.13578125 71.45054687 -15.9140625 71.71484375 C-18 72 -18 72 -21 70 C-20.38511719 69.91363281 -19.77023437 69.82726562 -19.13671875 69.73828125 C-18.32847656 69.59777344 -17.52023437 69.45726562 -16.6875 69.3125 C-15.88699219 69.18488281 -15.08648437 69.05726563 -14.26171875 68.92578125 C-11.00861021 67.59419796 -10.40631625 66.21143859 -9 63 C-8.27094314 59.98188462 -7.80904191 56.94781942 -7.375 53.875 C-7.13483312 52.2679259 -6.89272456 50.66114046 -6.6484375 49.0546875 C-6.54708496 48.34812012 -6.44573242 47.64155273 -6.34130859 46.91357422 C-6 45 -6 45 -5 42 C-4.88126266 39.00307688 -4.81471685 36.02516988 -4.7890625 33.02734375 C-4.76100979 31.22329797 -4.73234545 29.41926162 -4.703125 27.61523438 C-4.66174739 24.76879991 -4.6248622 21.92254452 -4.59863281 19.07592773 C-4.57113521 16.33019712 -4.52528397 13.5852685 -4.4765625 10.83984375 C-4.47330963 9.98462631 -4.47005676 9.12940887 -4.46670532 8.24827576 C-4.41650391 5.85131836 -4.41650391 5.85131836 -4 2 C-1 0 -1 0 0 0 Z " fill="#E0581E" transform="translate(509,322)"/>
<path d="M0 0 C0.33 0 0.66 0 1 0 C1.19855141 8.50030227 0.61300739 16.69478462 -0.4375 25.125 C-1.45956753 33.73687617 -2.28326368 42.28404435 -2.65380859 50.94726562 C-2.96911463 57.71434127 -3.8936102 64.31869461 -5 71 C-6.485 71.495 -6.485 71.495 -8 72 C-8.13181112 65.09846943 -7.76968255 58.38127067 -7.01171875 51.5234375 C-6.85592094 50.07005478 -6.85592094 50.07005478 -6.69697571 48.58731079 C-6.47683807 46.54831472 -6.25399592 44.50960898 -6.02856445 42.47119141 C-5.69078618 39.40483205 -5.36532968 36.33734028 -5.04101562 33.26953125 C-3.83135844 22.06260324 -2.31488981 11.03621956 0 0 Z " fill="#E55E21" transform="translate(280,161)"/>
<path d="M0 0 C11.39535601 8.06012986 16.97532172 22.57496551 20.6171875 35.58984375 C21.01477837 38.09304342 20.80593962 39.62082207 20 42 C18.515 41.505 18.515 41.505 17 41 C16.09619141 38.79443359 16.09619141 38.79443359 15.3515625 35.8984375 C15.06796875 34.85042969 14.784375 33.80242187 14.4921875 32.72265625 C13.92024316 30.51474499 13.34989468 28.30641963 12.78125 26.09765625 C11.04133213 19.67877006 9.2054162 15.15809948 5 10 C2.97207717 6.77918139 1.20903691 3.62711073 0 0 Z " fill="#DC5C29" transform="translate(445,85)"/>
<path d="M0 0 C4.08431702 2.88958483 6.11005169 5.49484566 8.25 10 C9.00023437 11.546875 9.00023437 11.546875 9.765625 13.125 C11.81055387 17.8878723 12.11456957 21.54304299 12.0625 26.75 C12.05347656 27.92046875 12.04445313 29.0909375 12.03515625 30.296875 C12.02355469 31.18890625 12.01195312 32.0809375 12 33 C10.5234375 31.94140625 10.5234375 31.94140625 9 30 C8.6640625 26.77734375 8.6640625 26.77734375 8.625 22.9375 C8.37166666 15.49560869 6.7980958 8.74460149 1.3359375 3.359375 C0 2 0 2 0 0 Z " fill="#EE6728" transform="translate(459,235)"/>
<path d="M0 0 C0.33 0 0.66 0 1 0 C1.18451025 15.74487472 1.18451025 15.74487472 0 23 C-0.99 23.33 -1.98 23.66 -3 24 C-3.12910853 17.25766581 -2.797837 10.69613196 -2 4 C-1.34 4 -0.68 4 0 4 C0 2.68 0 1.36 0 0 Z " fill="#D94E15" transform="translate(275,209)"/>
<path d="M0 0 C7.59250638 5.37030939 12.34160899 13.15172797 15 22 C14.34 22.66 13.68 23.32 13 24 C12.64808594 23.24976562 12.29617188 22.49953125 11.93359375 21.7265625 C8.8671392 15.36947395 5.54818373 9.61640161 1.3203125 3.9609375 C0 2 0 2 0 0 Z " fill="#E25822" transform="translate(445,85)"/>
<path d="M0 0 C5.82200252 8.73300377 5.58466785 21.77423615 6 32 C5.34 31.67 4.68 31.34 4 31 C3.40576172 28.57910156 3.40576172 28.57910156 2.9296875 25.390625 C2.66865234 23.66972656 2.66865234 23.66972656 2.40234375 21.9140625 C2.22832031 20.70492187 2.05429687 19.49578125 1.875 18.25 C1.69324219 17.05632812 1.51148438 15.86265625 1.32421875 14.6328125 C-0.11745358 4.94217293 -0.11745358 4.94217293 0 0 Z " fill="#E85B1B" transform="translate(313,166)"/>
<path d="M0 0 C0.33 0 0.66 0 1 0 C1.33 7.26 1.66 14.52 2 22 C2.66 21.34 3.32 20.68 4 20 C4 25.28 4 30.56 4 36 C3.67 36 3.34 36 3 36 C2.67 33.03 2.34 30.06 2 27 C1.34 27.33 0.68 27.66 0 28 C0 18.76 0 9.52 0 0 Z " fill="#EC611E" transform="translate(505,326)"/>
<path d="M0 0 C2.77042109 2.77042109 2.39796106 4.76533805 2.625 8.625 C2.69976562 9.81351563 2.77453125 11.00203125 2.8515625 12.2265625 C2.92503906 13.59941406 2.92503906 13.59941406 3 15 C2.01 15.495 2.01 15.495 1 16 C0.34227572 19.02934491 0.34227572 19.02934491 0 22 C-0.33 22 -0.66 22 -1 22 C-1.14715692 14.6094524 -0.70776992 7.35575165 0 0 Z " fill="#F9E7DB" transform="translate(283,146)"/>
<path d="M0 0 C0.99 0 1.98 0 3 0 C2.22095672 10.55808656 2.22095672 10.55808656 0 15 C-1.58203125 13.88671875 -1.58203125 13.88671875 -3 12 C-2.63671875 9.08203125 -2.63671875 9.08203125 -1.6875 5.8125 C-1.38199219 4.72582031 -1.07648438 3.63914062 -0.76171875 2.51953125 C-0.51035156 1.68808594 -0.25898438 0.85664063 0 0 Z " fill="#E65917" transform="translate(467,264)"/>
<path d="M0 0 C0 4.29 0 8.58 0 13 C-0.99 12.67 -1.98 12.34 -3 12 C-3.33 8.7 -3.66 5.4 -4 2 C-1 0 -1 0 0 0 Z " fill="#E55A1B" transform="translate(509,322)"/>
<path d="M0 0 C0.33 0 0.66 0 1 0 C1 3.96 1 7.92 1 12 C-0.98 12.99 -0.98 12.99 -3 14 C-2.88617347 12.04098546 -2.75858875 10.0827662 -2.625 8.125 C-2.55539062 7.03445313 -2.48578125 5.94390625 -2.4140625 4.8203125 C-2 2 -2 2 0 0 Z " fill="#DD5015" transform="translate(507,352)"/>
<path d="M0 0 C0.66 0 1.32 0 2 0 C2.99 3.3 3.98 6.6 5 10 C4.34 9.67 3.68 9.34 3 9 C2.01 10.485 2.01 10.485 1 12 C0.63762737 10.37681021 0.28534843 8.7513642 -0.0625 7.125 C-0.25972656 6.22007813 -0.45695312 5.31515625 -0.66015625 4.3828125 C-1 2 -1 2 0 0 Z " fill="#E56B35" transform="translate(459,107)"/>
<path d="M0 0 C0.66 0 1.32 0 2 0 C2 4.29 2 8.58 2 13 C-1 10 -1 10 -1.07421875 7.51953125 C-0.94660156 6.62621094 -0.81898438 5.73289062 -0.6875 4.8125 C-0.56761719 3.91144531 -0.44773437 3.01039063 -0.32421875 2.08203125 C-0.21722656 1.39496094 -0.11023438 0.70789063 0 0 Z " fill="#EC763C" transform="translate(469,255)"/>
<path d="M0 0 C0 3 0 3 -2.1875 5.26171875 C-3.115625 6.06222656 -4.04375 6.86273438 -5 7.6875 C-5.928125 8.49574219 -6.85625 9.30398437 -7.8125 10.13671875 C-8.8953125 11.05904297 -8.8953125 11.05904297 -10 12 C-10.66 11.67 -11.32 11.34 -12 11 C-10.75323147 9.72599623 -9.5024352 8.45593346 -8.25 7.1875 C-7.55390625 6.47980469 -6.8578125 5.77210937 -6.140625 5.04296875 C-4.18571355 3.17724121 -2.19661447 1.56830358 0 0 Z " fill="#F9863F" transform="translate(265,89)"/>
<path d="M0 0 C0.66 0.66 1.32 1.32 2 2 C1.9765625 5.2578125 1.9765625 5.2578125 1.625 9.125 C1.51414062 10.40632812 1.40328125 11.68765625 1.2890625 13.0078125 C1.19367188 13.99523437 1.09828125 14.98265625 1 16 C-1.26273207 12.44181064 -1.07331744 9.87452049 -0.625 5.75 C-0.51414062 4.67234375 -0.40328125 3.5946875 -0.2890625 2.484375 C-0.19367188 1.66453125 -0.09828125 0.8446875 0 0 Z " fill="#EB753D" transform="translate(281,149)"/>
<path d="M0 0 C0.33 0 0.66 0 1 0 C1 5.28 1 10.56 1 16 C0.67 16 0.34 16 0 16 C-0.33 13.03 -0.66 10.06 -1 7 C-1.33 7 -1.66 7 -2 7 C-2.125 4.625 -2.125 4.625 -2 2 C-1.34 1.34 -0.68 0.68 0 0 Z " fill="#E2622E" transform="translate(508,346)"/>
<path d="M0 0 C0.66 0.33 1.32 0.66 2 1 C1.34 3.31 0.68 5.62 0 8 C-0.99 7.01 -1.98 6.02 -3 5 C-2.01 3.35 -1.02 1.7 0 0 Z " fill="#E25B23" transform="translate(467,271)"/>
<path d="M0 0 C3.93548431 3.06093224 6.68116787 5.49115974 9 10 C4.71095765 8.4114658 2.67654474 5.56872632 0 2 C0 1.34 0 0.68 0 0 Z " fill="#DC592C" transform="translate(445,85)"/>
<path d="M0 0 C0.66 0 1.32 0 2 0 C0.55746343 3.36591866 -1.33264727 5.51047079 -4 8 C-2.25 2.25 -2.25 2.25 0 0 Z " fill="#F88647" transform="translate(430,78)"/>
</svg>
